<svg width="531" height="531" viewBox="0 0 531 531" fill="none" xmlns="http://www.w3.org/2000/svg">
<path d="M373.36 183.949C371.059 177.991 367.536 172.58 363.018 168.066C358.499 163.553 353.085 160.035 347.124 157.741C338.917 154.701 330.248 153.094 321.496 152.991C306.942 152.328 302.579 152.162 265.711 152.162C228.843 152.162 224.48 152.328 209.926 152.991C201.165 153.091 192.486 154.698 184.27 157.741C178.312 160.041 172.902 163.565 168.388 168.083C163.874 172.602 160.356 178.016 158.062 183.977C155.022 192.184 153.416 200.853 153.312 209.605C152.649 224.158 152.484 228.522 152.484 265.39C152.484 302.258 152.649 306.621 153.312 321.175C153.412 329.936 155.019 338.614 158.062 346.831C160.363 352.789 163.886 358.199 168.404 362.713C172.923 367.227 178.337 370.744 184.298 373.039C192.505 376.078 201.174 377.685 209.926 377.789C224.48 378.451 228.843 378.589 265.711 378.589C302.579 378.589 306.942 378.451 321.496 377.761C330.256 377.67 338.934 376.072 347.152 373.039C353.11 370.738 358.52 367.215 363.034 362.696C367.548 358.178 371.066 352.764 373.36 346.803C376.4 338.595 378.006 329.927 378.11 321.175C378.773 306.621 378.911 302.258 378.911 265.39C378.911 228.522 378.773 224.158 378.082 209.605C377.991 200.845 376.393 192.167 373.36 183.949ZM265.711 336.309C251.685 336.309 237.973 332.149 226.311 324.357C214.648 316.564 205.558 305.488 200.19 292.529C194.823 279.571 193.418 265.311 196.155 251.554C198.891 237.797 205.646 225.161 215.564 215.242C225.482 205.324 238.119 198.57 251.875 195.833C265.632 193.097 279.892 194.501 292.851 199.869C305.809 205.237 316.885 214.327 324.678 225.989C332.471 237.652 336.63 251.363 336.63 265.39C336.63 284.199 329.158 302.237 315.858 315.537C302.558 328.837 284.52 336.309 265.711 336.309ZM339.419 208.251C336.142 208.251 332.938 207.28 330.214 205.459C327.489 203.638 325.365 201.05 324.111 198.023C322.857 194.995 322.528 191.663 323.168 188.449C323.807 185.235 325.385 182.282 327.703 179.965C330.02 177.648 332.972 176.069 336.187 175.43C339.401 174.791 342.733 175.119 345.76 176.373C348.788 177.627 351.376 179.751 353.197 182.476C355.017 185.201 355.989 188.404 355.989 191.682C355.989 196.076 354.243 200.291 351.136 203.398C348.028 206.506 343.814 208.251 339.419 208.251ZM311.748 265.39C311.748 274.495 309.048 283.396 303.989 290.966C298.931 298.537 291.741 304.438 283.328 307.922C274.916 311.406 265.66 312.318 256.73 310.542C247.8 308.765 239.597 304.381 233.158 297.942C226.72 291.504 222.335 283.301 220.559 274.371C218.783 265.441 219.694 256.184 223.179 247.772C226.663 239.36 232.564 232.17 240.135 227.112C247.705 222.053 256.606 219.353 265.711 219.353C277.921 219.353 289.63 224.203 298.264 232.837C306.897 241.47 311.748 253.18 311.748 265.39ZM265.711 0.272095C213.276 0.272095 162.018 15.821 118.42 44.9525C74.8212 74.084 40.8404 115.49 20.7743 163.934C0.708163 212.378 -4.54205 265.684 5.68757 317.112C15.9172 368.539 41.1672 415.779 78.2446 452.856C115.322 489.934 162.561 515.184 213.989 525.413C265.417 535.643 318.723 530.393 367.167 510.327C415.611 490.26 457.017 456.28 486.148 412.681C515.28 369.083 530.829 317.825 530.829 265.39C530.829 195.076 502.897 127.642 453.178 77.9233C403.458 28.2041 336.025 0.272095 265.711 0.272095ZM402.965 322.307C402.731 333.766 400.555 345.102 396.53 355.834C392.983 365.004 387.56 373.333 380.607 380.286C373.654 387.239 365.326 392.662 356.155 396.209C345.432 400.231 334.106 402.406 322.656 402.643C307.909 403.306 303.214 403.472 265.711 403.472C228.208 403.472 223.513 403.306 208.766 402.643C197.316 402.406 185.99 400.231 175.267 396.209C166.096 392.662 157.768 387.239 150.815 380.286C143.862 373.333 138.439 365.004 134.892 355.834C130.87 345.111 128.694 333.784 128.457 322.335C127.795 307.588 127.629 302.893 127.629 265.39C127.629 227.887 127.795 223.192 128.457 208.445C128.686 196.997 130.852 185.67 134.864 174.946C138.411 165.767 143.837 157.432 150.795 150.474C157.753 143.516 166.089 138.09 175.267 134.543C185.991 130.531 197.318 128.364 208.766 128.136C223.513 127.473 228.208 127.308 265.711 127.308C303.214 127.308 307.909 127.473 322.656 128.136C334.104 128.364 345.431 130.531 356.155 134.543C365.328 138.093 373.659 143.521 380.612 150.478C387.565 157.436 392.987 165.77 396.53 174.946C400.552 185.668 402.728 196.995 402.965 208.445C403.627 223.192 403.793 227.887 403.793 265.39C403.793 302.893 403.627 307.56 402.965 322.307Z" fill="white"/>
</svg>
