<svg width="531" height="531" viewBox="0 0 531 531" fill="none" xmlns="http://www.w3.org/2000/svg">
<path d="M265.118 530.235C118.69 530.235 0 411.546 0 265.118C0 118.69 118.69 0 265.118 0C411.546 0 530.235 118.69 530.235 265.118C530.235 411.546 411.546 530.235 265.118 530.235ZM382.267 132.559L306.476 207.504C295.449 218.388 280.578 224.491 265.085 224.491C249.591 224.491 234.72 218.388 223.693 207.504L147.969 132.559H99.9991L199.75 231.265C217.175 248.434 240.655 258.058 265.118 258.058C289.58 258.058 313.06 248.434 330.486 231.265L430.17 132.559H382.267ZM147.389 407.005L223.759 331.397C234.786 320.513 249.657 314.41 265.151 314.41C280.645 314.41 295.515 320.513 306.542 331.397L382.847 407.005H430.816L330.486 307.702C313.06 290.534 289.58 280.91 265.118 280.91C240.655 280.91 217.175 290.534 199.75 307.702L99.4191 406.989L147.389 407.005Z" fill="white"/>
</svg>
