<svg width="394" height="160" viewBox="0 0 394 160" fill="none" xmlns="http://www.w3.org/2000/svg">
<ellipse cx="175" cy="80" rx="25" ry="60" fill="#D50101"/>
<circle cx="257" cy="80" r="40" fill="#D50101"/>
<path d="M394 80C394 69.3913 389.786 59.2172 382.284 51.7157C374.783 44.2143 364.609 40 354 40C343.391 40 333.217 44.2143 325.716 51.7157C318.214 59.2172 314 69.3913 314 80L332.805 80C332.805 74.3788 335.038 68.9877 339.013 65.0129C342.988 61.0381 348.379 58.8051 354 58.8051C359.621 58.8051 365.012 61.0381 368.987 65.0129C372.962 68.9877 375.195 74.3788 375.195 80H394Z" fill="#D50101"/>
<path d="M314 80C314 90.6087 318.214 100.783 325.716 108.284C333.217 115.786 343.391 120 354 120C364.609 120 374.783 115.786 382.284 108.284C389.786 100.783 394 90.6087 394 80L375.195 80C375.195 85.6212 372.962 91.0123 368.987 94.9871C365.012 98.9619 359.621 101.195 354 101.195C348.379 101.195 342.988 98.9619 339.013 94.9871C335.038 91.0123 332.805 85.6212 332.805 80H314Z" fill="#D50101"/>
<path d="M74.2697 18.4615C76.0167 12.833 83.9833 12.833 85.7303 18.4615L96.07 51.7731C96.8579 54.3115 99.2218 56.029 101.879 55.994L136.756 55.5337C142.649 55.4559 145.11 63.0326 140.297 66.4334L111.811 86.5609C109.641 88.0946 108.738 90.8736 109.592 93.3903L120.807 126.417C122.702 131.998 116.257 136.681 111.535 133.154L83.5905 112.282C81.461 110.691 78.539 110.691 76.4095 112.282L48.4645 133.154C43.7428 136.681 37.2977 131.998 39.1927 126.417L50.4078 93.3903C51.2624 90.8736 50.3594 88.0946 48.1888 86.5609L19.7027 66.4334C14.8895 63.0326 17.3513 55.4559 23.2442 55.5337L58.1205 55.994C60.7781 56.029 63.1421 54.3115 63.93 51.7731L74.2697 18.4615Z" fill="#D50101"/>
</svg>
